<svg id="Layer_1" data-name="Layer 1" xmlns="http://www.w3.org/2000/svg" viewBox="0 0 56.42 56.43"><defs><style>.cls-1{fill:#fff;}</style></defs><title>logo facebook</title><path class="cls-1" d="M44.69,1.1H12.3a12,12,0,0,0-12,12V45.51a12,12,0,0,0,12,12H44.69a12,12,0,0,0,12-12V13.12A12,12,0,0,0,44.69,1.1ZM41.62,12.47H37.46Q33.82,12.47,33,14a2.71,2.71,0,0,0-.37.89,7.63,7.63,0,0,0-.26,2.63v5h8.9l-1.11,9H32.35V54.59H23.08V31.54h-7.7v-9h7.7V15.73a12.62,12.62,0,0,1,1.71-6.59q3-5.1,9.92-5.1a56.92,56.92,0,0,1,6.91.41Z" transform="translate(-0.29 -1.1)"/></svg>