<svg id="Layer_1" data-name="Layer 1" xmlns="http://www.w3.org/2000/svg" viewBox="0 0 83.28 59.89"><defs><style>.cls-1{fill:#fff;}</style></defs><title>logo google-01</title><path class="cls-1" d="M22.36,44.24a18.16,18.16,0,0,1-7.06-8.86,16,16,0,0,1-1-5.56,16,16,0,0,1,.78-5.46,16.56,16.56,0,0,1,6.34-8.83,16.78,16.78,0,0,1,10.16-3.35h.72q5.31,0,10.79,4.27v0a51.15,51.15,0,0,1-3.82,4c-.29.31-.49.47-.58.47a13.26,13.26,0,0,0-7.31-2.33,9.67,9.67,0,0,0-6.28,2.13,9.33,9.33,0,0,0-2.77,3.13,11.16,11.16,0,0,0-1.41,5.59,10.87,10.87,0,0,0,2.49,7.2,11.05,11.05,0,0,0,8.22,3.68,11.52,11.52,0,0,0,6.7-2.13,9.56,9.56,0,0,0,2.55-3.49A6.8,6.8,0,0,0,41.46,33c-6.22,0-9.5-.07-9.83-.11V27.11q0-.12,16.5-.12v.12c.06.75.08,1.47.08,2.15q0,9.39-6.2,14.26a18.19,18.19,0,0,1-10.38,3.3A17.57,17.57,0,0,1,22.36,44.24Zm36.46-7.31V32l-4.93-.06V27h4.93V22h4.87l0,5h5v4.9l-5,.06,0,5Z"/></svg>